<?xml version="1.0" standalone="no"?>
<!DOCTYPE svg PUBLIC "-//W3C//DTD SVG 20010904//EN"
 "http://www.w3.org/TR/2001/REC-SVG-20010904/DTD/svg10.dtd">
<svg version="1.0" xmlns="http://www.w3.org/2000/svg"
 width="675.000000pt" height="223.000000pt" viewBox="0 0 675.000000 223.000000"
 preserveAspectRatio="xMidYMid meet">

<g transform="translate(0.000000,223.000000) scale(0.100000,-0.100000)"
fill="#000000" stroke="none">
<path d="M1262 1433 c2 -10 12 -19 23 -21 41 -8 40 -21 -10 -122 l-49 -101
-48 93 c-53 105 -57 125 -26 130 12 2 23 9 26 16 3 9 -22 12 -102 12 -106 0
-133 -10 -81 -30 19 -7 43 -46 102 -165 l78 -155 -58 -116 c-32 -64 -62 -113
-66 -108 -9 10 -175 366 -216 463 -14 35 -23 67 -18 72 4 4 21 9 37 11 16 2
31 9 34 16 3 9 -28 12 -133 12 -105 0 -136 -3 -133 -12 3 -7 16 -14 31 -16 35
-4 41 -13 112 -169 146 -323 229 -499 242 -515 8 -9 21 -14 30 -11 8 3 48 73
89 155 41 83 77 149 78 147 2 -2 32 -66 66 -141 34 -75 70 -144 80 -153 17
-16 20 -16 36 3 9 11 77 156 150 322 73 166 140 312 148 326 9 13 29 26 44 30
47 10 52 13 52 29 0 13 -17 15 -122 13 -101 -3 -123 -6 -123 -18 0 -10 13 -17
35 -20 25 -4 36 -11 38 -25 1 -11 -43 -128 -98 -260 -56 -132 -104 -246 -107
-252 -3 -7 -8 -13 -12 -13 -4 0 -36 61 -71 136 l-64 137 49 95 c75 143 101
180 127 184 12 2 24 11 26 21 3 15 -7 17 -98 17 -91 0 -101 -2 -98 -17z"/>
<path d="M5236 1418 c-8 -13 -71 -156 -140 -319 -70 -163 -136 -306 -147 -318
-11 -12 -34 -24 -50 -28 -16 -3 -29 -12 -29 -19 0 -11 26 -14 126 -14 95 0
125 3 122 12 -3 7 -21 17 -42 21 -21 5 -40 16 -43 24 -5 13 10 60 50 156 l19
47 132 0 131 0 35 -101 c34 -98 34 -101 15 -115 -10 -8 -31 -14 -47 -14 -18 0
-28 -5 -28 -15 0 -13 22 -15 140 -15 113 0 140 3 140 14 0 8 -15 17 -35 20
-20 4 -41 17 -50 29 -8 13 -68 164 -134 337 -78 208 -124 316 -134 318 -9 2
-22 -7 -31 -20z m59 -253 c25 -70 45 -129 45 -131 0 -2 -47 -4 -105 -4 -73 0
-105 4 -105 12 0 6 23 71 52 145 34 89 54 129 60 120 4 -8 28 -72 53 -142z"/>
<path d="M1702 1210 c2 -9 18 -17 38 -20 l35 -5 3 -190 c1 -104 0 -200 -3
-212 -4 -16 -15 -24 -40 -29 -20 -3 -35 -12 -35 -20 0 -11 24 -14 120 -14 91
0 120 3 120 13 0 7 -15 17 -32 22 l-33 10 0 210 0 210 30 5 c16 3 31 12 33 20
2 13 -17 15 -118 15 -102 0 -120 -2 -118 -15z"/>
<path d="M2030 1208 c0 -12 10 -18 33 -20 l32 -3 0 -210 0 -209 -32 -10 c-18
-5 -33 -15 -33 -22 0 -11 24 -14 110 -14 88 0 110 3 110 14 0 8 -13 19 -30 25
l-30 10 0 97 c0 84 2 95 16 90 9 -3 17 -6 19 -6 13 0 155 -191 155 -208 0 -21
5 -22 80 -22 89 0 107 16 46 41 -48 19 -219 225 -206 248 15 27 127 154 146
164 10 6 32 13 49 17 16 3 31 12 33 20 2 12 -15 15 -98 15 -104 1 -122 -8 -78
-37 l22 -15 -22 -34 c-25 -41 -120 -134 -145 -142 -16 -6 -17 1 -15 90 3 94 4
97 28 103 14 3 26 12 28 20 2 12 -17 15 -108 15 -97 0 -110 -2 -110 -17z"/>
<path d="M2613 1217 c-8 -13 9 -25 42 -29 l30 -3 0 -210 0 -210 -35 -11 c-19
-7 -34 -16 -33 -20 2 -5 55 -10 118 -12 90 -2 115 0 115 11 0 7 -15 17 -32 22
l-33 10 0 210 0 210 30 5 c16 3 31 12 33 20 2 13 -16 15 -114 15 -64 0 -118
-4 -121 -8z"/>
<path d="M2942 1210 c2 -8 17 -17 33 -20 l30 -5 0 -210 0 -209 -32 -10 c-18
-5 -33 -15 -33 -22 0 -11 26 -14 121 -14 88 0 120 3 117 12 -2 6 -20 17 -39
23 l-34 12 -3 80 -3 81 65 0 c115 0 176 48 184 145 5 68 -14 108 -65 132 -53
25 -345 30 -341 5z m297 -46 c16 -21 21 -41 21 -91 0 -55 -4 -67 -25 -88 -20
-21 -34 -25 -80 -25 l-55 0 0 108 c0 60 3 112 7 115 3 4 30 7 59 7 45 0 56 -4
73 -26z"/>
<path d="M3432 1210 c2 -9 18 -17 38 -20 l35 -5 3 -200 c3 -194 2 -201 -19
-217 -12 -10 -30 -18 -40 -18 -10 0 -19 -7 -19 -15 0 -13 27 -15 203 -13 l202
3 9 58 c9 61 1 85 -18 52 -6 -10 -23 -32 -38 -47 -24 -26 -32 -28 -102 -28
-92 0 -96 5 -96 124 l0 86 48 0 c56 0 67 -6 81 -43 20 -51 31 -29 31 58 0 87
-11 109 -31 58 -14 -37 -25 -43 -81 -43 l-48 0 0 84 c0 104 6 110 96 104 60
-4 70 -7 95 -36 16 -18 29 -39 29 -47 0 -8 7 -15 15 -15 12 0 14 11 8 63 -3
34 -7 64 -9 65 -1 2 -91 5 -199 5 -169 2 -195 0 -193 -13z"/>
<path d="M3952 1210 c2 -8 17 -17 33 -20 l30 -5 0 -210 0 -210 -32 -10 c-18
-5 -33 -15 -33 -23 0 -11 33 -13 183 -10 199 3 218 8 284 71 86 82 81 280 -9
364 -13 12 -46 32 -73 44 -45 20 -68 22 -218 23 -144 1 -167 -1 -165 -14z
m334 -41 c65 -31 94 -96 94 -211 0 -144 -39 -195 -159 -205 -31 -3 -68 0 -83
6 l-28 11 0 203 c0 112 3 207 7 210 15 16 128 7 169 -14z"/>
<path d="M4582 1210 c2 -8 17 -17 33 -20 l30 -5 0 -210 0 -210 -32 -10 c-18
-5 -33 -15 -33 -22 0 -11 25 -13 115 -11 118 3 143 13 82 34 l-32 11 0 209 0
209 35 5 c21 3 35 11 35 19 0 12 -23 15 -118 15 -99 1 -117 -1 -115 -14z"/>
</g>
</svg>
